<?xml version="1.0" encoding="utf-8"?>
<svg version="1.1" xmlns:xlink="http://www.w3.org/1999/xlink" width="30px" height="30px" xmlns="http://www.w3.org/2000/svg">
  <g transform="matrix(1 0 0 1 -818 -45 )">
    <path d="M 27.533333333333346 14.376023391812874  C 29.701169590643257 12.20818713450293  30.43976608187136 9.152631578947364  29.75029239766084 6.380116959064321  C 29.61929824561405 5.852046783625735  28.958479532163757 5.673099415204695  28.573684210526334 6.057894736842115  L 24.22514619883041 10.406432748538009  L 20.255555555555542 9.745029239766087  L 19.59415204678362 5.775438596491222  L 23.94269005847955 1.4269005847953282  C 24.32982456140352 1.0397660818713403  24.143274853801163 0.3801169590643212  23.611695906432736 0.2479532163742761  C 20.840935672514615 -0.43859649122806554  17.79005847953215 0.3011695906432749  15.624561403508755 2.4660818713450223  C 13.306432748537997 4.78421052631578  12.668421052631572 8.144444444444446  13.633333333333338 11.074269005847952  L 1.1543859649122965 23.55321637426899  C -0.3070175438596493 25.01461988304094  -0.3070175438596493 27.38421052631579  1.1543859649122965 28.845614035087735  C 2.6157894736842078 30.30701754385965  4.985380116959061 30.30701754385965  6.4467836257310065 28.845614035087735  L 18.915204678362556 16.377192982456155  C 21.846198830409357 17.35438596491226  25.2 16.709356725146186  27.533333333333346 14.376023391812874  Z M 5.204678362573111 26.19883040935672  C 5.204678362573111 26.973684210526322  4.576023391812851 27.60233918128655  3.8011695906432803 27.60233918128655  C 3.0263157894736765 27.60233918128655  2.39766081871345 26.973684210526322  2.39766081871345 26.19883040935672  C 2.39766081871345 25.423391812865486  3.0263157894736765 24.795321637426888  3.8011695906432803 24.795321637426888  C 4.576023391812851 24.795321637426888  5.204678362573111 25.423391812865486  5.204678362573111 26.19883040935672  Z " fill-rule="nonzero" fill="#797570" stroke="none" transform="matrix(1 0 0 1 818 45 )" />
  </g>
</svg>